<?xml version="1.0" encoding="utf-8"?>
<!DOCTYPE svg PUBLIC "-//W3C//DTD SVG 1.0//EN" "http://www.w3.org/TR/2001/REC-SVG-20010904/DTD/svg10.dtd">
<svg version="1.0" xmlns="http://www.w3.org/2000/svg" width="740px" height="740px" viewBox="0 0 740 740" preserveAspectRatio="xMidYMid meet">
 <g fill="#fafafa">
  <path d="M0 370 l0 -370 370 0 370 0 0 370 0 370 -370 0 -370 0 0 -370z m465.32 303.95 c-0.14 -0.14 -2.10 -0.43 -4.26 -0.65 -2.46 -0.22 -3.40 -0.14 -2.53 0.22 1.37 0.58 7.44 1.01 6.79 0.43z m10.12 -25.73 c0 -13.08 -0.14 -15.32 -0.94 -14.24 -0.51 0.65 -1.66 1.23 -2.46 1.23 -1.52 0 -1.52 0.07 0.29 2.75 1.66 2.38 1.81 3.25 1.59 8.24 -0.22 4.99 -0.43 5.78 -2.31 7.73 l-2.17 2.24 2.38 0 2.46 0 -0.36 6 c-0.29 5.28 -0.22 5.71 0.58 3.76 0.65 -1.52 0.94 -6.65 0.94 -17.71z m-307.06 10.12 c1.37 -0.43 0.87 -0.58 -2.31 -0.65 -2.24 -0.07 -4.70 -0.29 -5.42 -0.58 -0.72 -0.22 -1.08 -0.22 -0.79 0.14 0.51 0.51 4.55 1.66 6 1.66 0.43 0 1.52 -0.29 2.53 -0.58z m70.10 -0.72 c0.72 -0.51 -0.36 -0.72 -3.61 -0.65 -3.25 0 -4.26 0.22 -3.25 0.65 1.95 0.87 5.56 0.87 6.87 0z m54.20 -8.53 c0 -7.01 0.29 -9.61 1.08 -10.70 1.30 -1.73 1.37 -2.46 0.07 -2.46 -0.58 0 -1.16 -0.72 -1.30 -1.59 -0.14 -0.94 -0.51 -1.59 -0.94 -1.52 -0.72 0.22 -1.45 22.84 -0.79 24.57 0.22 0.51 0.72 0.94 1.16 0.94 0.43 0 0.72 -3.40 0.72 -9.25z m114.18 -3.40 c0 -12.65 -0.79 -16.62 -1.73 -8.24 -0.58 5.64 -0.58 18.21 0 19.73 1.23 3.25 1.73 -0.07 1.73 -11.49z m58.54 11.92 c0.79 -0.51 -0.22 -0.72 -3.25 -0.72 -3.04 0 -4.05 0.22 -3.25 0.72 0.58 0.36 2.10 0.72 3.25 0.72 1.23 0 2.67 -0.36 3.25 -0.72z m68.29 0 c1.01 -0.43 0 -0.65 -3.25 -0.65 -3.25 0 -4.26 0.22 -3.25 0.65 0.79 0.36 2.24 0.65 3.25 0.65 1.01 0 2.46 -0.29 3.25 -0.65z m62.73 0.22 c-0.94 -0.14 -2.38 -0.14 -3.25 0 -0.94 0.14 -0.22 0.29 1.59 0.29 1.81 0 2.53 -0.14 1.66 -0.29z m-243.39 -2.38 c1.45 -2.82 1.45 -2.89 -1.16 -2.89 -1.88 0 -2.17 0.22 -1.73 1.30 0.29 0.65 0.72 1.81 0.87 2.53 0.51 1.66 0.72 1.59 2.02 -0.94z m250.54 -5.35 c-0.65 -1.30 -0.79 -1.16 -0.79 1.37 0 2.38 0.07 2.67 0.72 1.52 0.58 -0.87 0.58 -1.81 0.07 -2.89z m-423.69 -0.94 c0.36 -1.30 0.29 -2.89 -0.22 -4.12 -0.72 -1.81 -0.79 -1.59 -0.79 2.31 0 4.77 0.14 4.99 1.01 1.81z m56.29 -3.69 c12.65 -0.22 12.50 -0.14 10.62 -4.12 l-0.94 -2.17 -0.07 2.75 -0.07 2.67 -10.84 0 -10.84 0 0 -2.67 -0.07 -2.75 -1.01 1.81 c-1.30 2.24 -1.37 5.78 -0.14 8.46 l0.87 1.95 0.36 -2.82 0.36 -2.89 11.78 -0.22z m282.85 0.29 c-0.22 -3.32 -0.51 -4.63 -0.94 -3.97 -0.87 1.37 -0.79 4.34 0.14 7.08 0.43 1.30 0.87 2.24 0.94 2.10 0.07 -0.14 0 -2.46 -0.14 -5.20z m24.35 -0.43 c0 -1.01 -0.36 -2.75 -0.87 -3.83 -0.79 -1.81 -0.87 -1.37 -0.87 3.83 0 5.20 0.07 5.64 0.87 3.83 0.51 -1.08 0.87 -2.82 0.87 -3.83z m-91.42 -6.36 c-0.07 -0.14 -0.72 1.23 -1.37 3.04 -1.08 2.82 -1.08 3.54 -0.29 6 l1.01 2.75 0.36 -5.78 c0.22 -3.18 0.36 -5.85 0.29 -6z m135.57 -0.65 c-0.07 -2.53 -0.14 -2.67 -1.08 -1.37 -0.72 0.94 -0.79 1.73 -0.29 2.67 1.01 2.02 1.37 1.66 1.37 -1.30z m-417.33 -0.94 c-0.79 -0.36 -1.95 -0.65 -2.53 -0.65 -0.65 0 -0.58 0.29 0.36 0.65 0.79 0.36 1.95 0.65 2.53 0.65 0.65 0 0.58 -0.29 -0.36 -0.65z m-6.79 -1.88 c-1.81 -0.58 -3.40 -0.87 -3.54 -0.65 -0.36 0.36 4.05 1.66 5.64 1.66 0.58 0 -0.36 -0.43 -2.10 -1.01z m139.33 -2.17 c0.72 -0.65 -2.53 -0.22 -3.54 0.43 -0.79 0.58 -0.51 0.65 1.08 0.29 1.23 -0.29 2.31 -0.58 2.46 -0.72z m162.89 -0.29 c-0.94 -0.36 -2.96 -0.36 -4.70 -0.07 -3.04 0.65 -2.96 0.65 1.59 0.65 3.47 0.07 4.26 -0.14 3.11 -0.58z m67.93 -0.14 c-1.16 -0.58 -2.60 -0.58 -4.70 -0.07 l-3.11 0.79 4.70 0 c3.83 0.07 4.41 -0.07 3.11 -0.72z m-296.65 -0.36 c-0.72 -0.14 -1.88 -0.14 -2.53 0 -0.72 0.22 -0.14 0.36 1.23 0.36 1.37 0 1.95 -0.14 1.30 -0.36z m359.16 0 c-0.72 -0.14 -2.02 -0.14 -2.89 0 -0.94 0.14 -0.36 0.29 1.23 0.29 1.59 0.07 2.31 -0.07 1.66 -0.29z m-442.19 -6.50 c-0.07 -4.05 -0.07 -4.12 -1.01 -2.10 -0.65 1.52 -0.72 2.75 -0.22 4.19 0.43 1.08 0.87 2.02 1.01 2.02 0.14 0 0.29 -1.88 0.22 -4.12z m14.38 -9.39 c-1.08 -0.14 -3.04 -0.14 -4.34 0 -1.30 0.14 -0.43 0.29 1.95 0.29 2.38 0 3.47 -0.14 2.38 -0.29z m201.12 -53.62 c8.82 -2.75 15.10 -8.89 18.36 -17.78 1.16 -3.11 1.37 -6.94 1.73 -28.76 l0.43 -25.22 1.66 -1.37 c0.94 -0.72 2.89 -1.52 4.34 -1.73 4.19 -0.72 4.63 -0.94 4.34 -2.67 -0.22 -1.66 -0.22 -1.66 -14.31 -1.66 l-14.09 0 0 1.81 c0 1.59 0.36 1.88 3.32 2.24 4.34 0.65 6.36 1.73 7.15 3.97 0.43 1.01 0.72 12.50 0.72 26.23 0 28.11 -0.36 30.35 -5.13 34.90 -4.12 3.97 -8.96 5.20 -19.01 4.77 -6.29 -0.29 -8.67 -0.65 -10.98 -1.88 -3.76 -1.88 -7.15 -5.78 -8.31 -9.32 -0.94 -3.25 -1.81 -43.94 -1.01 -51.16 0.58 -5.42 1.81 -6.72 6.79 -7.37 3.04 -0.43 4.26 -1.88 2.89 -3.54 -0.72 -0.87 -3.83 -1.01 -16.48 -0.87 -15.61 0.22 -15.61 0.22 -15.83 1.88 -0.29 1.73 0.14 1.95 4.41 2.67 1.52 0.22 3.40 1.08 4.19 1.88 1.30 1.30 1.37 2.53 1.37 21.82 0 22.76 0.72 30.93 3.25 36.42 6.07 13.44 23.63 19.87 40.18 14.74z m179.15 0.22 c15.18 -4.26 26.74 -16.91 30.06 -32.81 2.02 -9.76 -0.43 -21.10 -6.65 -30.50 -15.90 -23.85 -51.96 -23.85 -67.86 0.14 -6.29 9.47 -8.53 19.44 -6.58 29.63 3.40 18.36 17.85 32.23 36.21 34.98 3.32 0.43 10.41 -0.22 14.81 -1.45z m-336.18 -1.52 c-0.22 -1.73 -0.65 -2.10 -3.25 -2.53 -4.19 -0.72 -5.85 -1.73 -6.50 -4.05 -0.36 -1.08 -0.58 -16.26 -0.58 -33.75 l0 -31.80 8.17 -0.22 c4.77 -0.07 8.67 0.14 9.54 0.58 1.95 1.01 3.54 4.41 4.63 9.61 0.94 4.55 2.24 6.14 4.34 5.35 1.08 -0.43 1.16 -1.73 1.01 -10.77 l-0.22 -10.33 -34.18 -0.22 -34.18 -0.14 0.22 10.62 0.22 10.70 1.81 0 c1.30 0 1.88 -0.51 2.31 -1.81 0.22 -1.01 1.08 -3.83 1.73 -6.36 1.88 -6.79 2.89 -7.37 13.37 -7.37 l8.60 0 0 33.10 0 33.17 -1.66 1.52 c-0.87 0.87 -3.32 1.88 -5.42 2.31 -2.82 0.65 -3.76 1.16 -3.76 2.10 0 0.72 0.22 1.52 0.51 1.73 0.22 0.29 7.88 0.51 16.98 0.51 l16.55 0 -0.22 -1.95z m43.87 -0.22 c0 -1.52 -0.43 -1.81 -3.18 -2.31 -1.73 -0.29 -3.76 -1.08 -4.48 -1.73 -1.95 -1.81 -1.73 -6.79 0.58 -13.51 l1.95 -5.56 17.34 0.14 17.34 0.22 1.59 4.12 c2.31 6.07 3.47 10.98 2.96 13.01 -0.51 1.81 -2.24 2.89 -6.50 3.83 -1.59 0.29 -2.02 0.79 -1.81 2.02 0.22 1.59 0.36 1.59 15.97 1.81 l15.68 0.14 0 -2.10 c0 -1.88 -0.29 -2.17 -2.89 -2.60 -5.85 -1.01 -5.06 0.51 -24.71 -48.42 -5.56 -13.88 -10.70 -25.73 -11.27 -26.23 -0.87 -0.65 -3.61 -0.87 -9.54 -0.72 l-8.31 0.22 -0.22 1.88 c-0.22 1.73 0.14 2.02 3.04 2.75 l3.32 0.79 0 3.32 c0 3.90 -2.24 10.19 -14.24 40.18 -9.25 23.05 -10.62 25.44 -15.61 26.38 -2.60 0.51 -3.04 0.94 -3.25 2.60 l-0.22 1.95 13.22 -0.14 13.22 -0.22 0 -1.81z m186.66 0.22 c-0.22 -1.73 -0.65 -2.10 -3.47 -2.53 -5.93 -1.01 -6.14 -1.59 -6.36 -17.13 -0.22 -13.51 -0.22 -13.66 1.37 -14.16 2.67 -0.87 12 0.36 13.15 1.66 0.58 0.65 3.69 5.49 6.87 10.77 7.30 12.07 12.43 18.86 15.83 21.17 2.38 1.66 3.32 1.81 10.62 1.81 8.02 0 8.02 0 8.02 -1.73 0 -1.59 -0.51 -1.88 -4.19 -2.75 -2.38 -0.51 -5.20 -1.59 -6.29 -2.38 -1.88 -1.30 -7.59 -9.61 -16.12 -23.13 -3.69 -5.85 -3.54 -8.53 0.58 -9.90 4.48 -1.52 9.68 -5.93 12.21 -10.33 6.07 -10.77 -0.36 -23.27 -14.24 -27.61 -4.91 -1.59 -6.36 -1.66 -27.61 -1.66 l-22.40 0 -0.22 1.59 c-0.22 1.23 0.22 1.73 1.59 2.02 9.25 1.88 8.38 -1.95 8.38 36.28 l0 32.74 -2.24 1.37 c-1.23 0.72 -3.47 1.59 -5.06 1.81 -2.38 0.36 -2.82 0.72 -2.82 2.24 l0 1.81 16.33 0 16.26 0 -0.22 -1.95z m223.66 -117.14 c0.58 -0.65 1.37 -2.02 1.73 -3.04 0.29 -1.01 0.43 -45.60 0.22 -99.08 l-0.36 -97.27 -6.14 -5.28 c-7.52 -6.43 -13.37 -11.56 -25.80 -22.69 l-9.61 -8.46 0 -41.55 0 -41.48 -26.16 0.14 -26.23 0.22 -0.22 15.75 -0.14 15.75 -2.82 -0.22 c-2.89 -0.22 -10.48 -6.65 -99.29 -84.55 l-12.86 -11.35 -22.91 19.95 c-12.57 10.98 -24.71 21.54 -26.88 23.41 -2.17 1.88 -11.27 9.83 -20.16 17.56 -13.88 12.14 -16.55 14.16 -18.57 14.16 -2.38 0 -7.66 -4.48 -54.49 -45.82 -27.82 -24.57 -32.52 -28.62 -33.10 -28.62 -0.29 0 -4.19 3.18 -8.53 7.01 -4.41 3.90 -13.95 12.29 -21.25 18.64 -7.37 6.36 -14.96 13.08 -16.98 14.89 -1.95 1.81 -14.67 13.01 -28.11 24.79 -21.61 18.86 -24.79 21.39 -26.96 21.39 l-2.38 0 0 -16.98 0 -16.98 -24.79 0 c-18.28 0 -25 0.22 -25.65 0.87 -0.65 0.65 -0.87 10.91 -0.87 41.84 l0 40.97 -21.03 18.28 c-11.56 10.12 -23.63 20.60 -26.74 23.27 l-5.71 4.91 0 97.85 c0 62.51 0.29 98.50 0.72 99.73 0.36 1.01 1.45 2.17 2.31 2.53 1.01 0.36 120.68 0.65 295.13 0.65 278.73 0.07 293.54 0 294.63 -1.23z"/>
  <path d="M529.85 559.77 c-12.50 -3.18 -18.93 -15.75 -18.86 -36.93 0 -18.28 5.42 -30.57 15.32 -34.69 4.34 -1.81 15.32 -2.17 20.60 -0.72 8.96 2.53 14.96 10.77 16.77 23.05 1.37 8.82 0.58 25.37 -1.37 31.65 -2.75 8.53 -8.74 15.39 -15.10 17.20 -4.48 1.30 -13.15 1.52 -17.34 0.43z"/>
  <path d="M255.10 530.36 c0 -1.23 2.38 -8.38 5.28 -15.90 l5.20 -13.66 2.96 0 2.96 0 5.20 13.95 c2.82 7.59 5.13 14.74 5.13 15.90 l0 1.95 -13.37 0 -13.37 0 0 -2.24z"/>
  <path d="M432.87 505.86 l0 -15.90 10.33 0 c12.36 0 15.39 1.01 17.78 5.71 2.17 4.19 2.17 14.96 0 18.79 -3.04 5.49 -8.02 7.23 -20.31 7.30 l-7.80 0 0 -15.90z"/>
  <path d="M333.87 421.16 c0 -21.90 0.58 -26.67 3.32 -29.56 1.08 -1.16 2.60 -2.24 3.32 -2.53 1.23 -0.36 1.30 -2.60 1.16 -54.71 l-0.22 -54.34 -9.76 -0.36 -9.76 -0.36 -0.36 -10.12 -0.36 -10.12 -7.95 -0.22 c-4.34 -0.14 -10.04 0.14 -12.65 0.58 -7.44 1.30 -18.79 5.35 -26.96 9.76 -5.64 2.96 -8.24 3.97 -10.48 3.97 l-3.04 0 0 -3.32 c0 -2.60 0.51 -3.97 2.31 -6.36 8.74 -11.42 20.74 -20.02 34.69 -24.93 6.21 -2.17 15.54 -4.19 21.17 -4.55 2.75 -0.22 2.89 -0.29 3.11 -2.89 0.14 -2.10 0.58 -2.82 1.81 -3.11 0.87 -0.22 16.26 -0.29 34.11 -0.22 l32.52 0.22 0.22 3.83 c0.22 3.69 0.36 3.90 2.89 4.99 3.47 1.45 13.44 2.02 17.20 1.01 1.59 -0.43 4.34 -2.02 6.07 -3.47 l3.18 -2.75 12.43 -0.22 c10.48 -0.22 12.57 -0.07 13.51 0.87 4.12 4.12 4.48 31.80 0.51 38.01 -0.58 0.87 -2.89 1.08 -13.51 1.08 l-12.86 0 -3.40 -2.67 c-4.70 -3.61 -9.68 -4.70 -17.63 -3.69 -3.32 0.36 -6.50 1.16 -7.15 1.66 -0.79 0.65 -1.08 2.38 -1.08 6.58 0 3.69 -0.29 5.78 -0.87 6.21 -0.51 0.29 -4.70 0.72 -9.25 0.94 l-8.31 0.36 -0.22 53.62 -0.14 53.62 3.04 2.02 c2.02 1.30 3.40 2.96 3.97 4.55 0.58 1.73 0.87 9.25 0.87 23.70 l0.07 21.10 -22.76 0 -22.76 0 0 -18.21z"/>
  <path d="M176.54 326.35 c-0.94 -2.96 -1.66 -6.21 -1.66 -7.23 0 -1.81 -0.22 -1.88 -3.97 -1.88 l-3.97 0 0 2.67 c0 1.45 -0.58 4.34 -1.23 6.50 -1.08 3.54 -1.37 3.83 -3.47 3.83 -1.37 0 -5.42 -1.73 -10.55 -4.41 -4.48 -2.46 -8.96 -4.84 -9.83 -5.28 -1.37 -0.65 -1.66 -1.37 -1.66 -4.41 0 -3.04 0.36 -4.12 2.24 -6.36 1.95 -2.38 2.60 -2.67 5.42 -2.67 3.11 0 3.25 -0.07 2.67 -1.59 -0.29 -0.94 -0.58 -4.19 -0.58 -7.23 0 -5.49 0 -5.64 -1.81 -5.64 -3.32 0 -3.83 -0.94 -3.40 -5.56 0.36 -3.61 9.11 -38.16 15.54 -61.28 l2.02 -7.23 7.30 -0.22 7.30 -0.22 1.08 3.83 c9.76 34.54 17.20 64.03 16.98 67.35 -0.22 2.67 -0.43 3.04 -2.60 3.69 -1.52 0.43 -2.24 1.01 -1.95 1.66 0.22 0.51 0.36 3.25 0.36 6 0 4.99 0 4.99 2.02 4.99 4.91 0 9.54 5.71 9.54 11.92 0 3.11 -0.07 3.25 -2.17 3.25 -2.67 0 -17.34 8.31 -17.34 9.83 0 0.65 -0.79 1.01 -2.31 1.01 -2.31 0 -2.46 -0.14 -3.97 -5.35z m-4.63 -67.50 c3.11 -4.91 2.82 -9.76 -0.79 -13.66 -1.88 -2.02 -2.31 -1.73 -4.63 2.75 -1.59 3.18 -1.66 3.90 -1.01 6.65 0.65 2.31 3.47 7.73 4.05 7.73 0.07 0 1.16 -1.59 2.38 -3.47z"/>
  <path d="M524.65 253.65 l0 -27.46 5.42 0 5.42 0 0.22 19.01 0.14 18.93 0.22 -18.93 0.14 -19.01 5.78 0 5.78 0 0.22 19.01 0.14 18.93 0.22 -18.93 0.14 -19.01 5.78 0 5.78 0 0.22 19.01 0.14 18.93 0.22 -18.93 0.14 -19.01 5.78 0 5.78 0 0.22 19.01 0.14 18.93 0.22 -18.93 0.14 -19.01 5.78 0 5.78 0 0.22 19.01 0.14 18.93 0.22 -18.93 0.14 -19.01 5.78 0 5.78 0 0.22 19.01 0.14 18.93 0.22 -18.93 0.14 -19.01 5.42 0 5.42 0 0 27.46 0 27.46 -41.91 0 -41.91 0 0 -27.46z"/>
 </g>
 <g fill="#eaecee">
  <path d="M522.48 291.95 l0 -10.12 44.08 0 44.08 0 0 10.12 0 10.12 -3.25 0 c-2.96 0 -3.25 -0.14 -3.25 -1.81 l0 -1.81 -38.30 0 -38.30 0 0 1.81 c0 1.59 -0.29 1.81 -2.53 1.81 l-2.53 0 0 -10.12z"/>
 </g>
 <g fill="#d2d2d1">
  <path d="M109.34 430.20 c1.01 -21.10 5.93 -38.30 18.36 -64.61 l4.34 -9.03 -1.45 -1.81 c-1.16 -1.45 -1.37 -2.46 -1.01 -6.79 0.43 -6.36 4.77 -17.49 8.17 -21.32 2.17 -2.38 2.46 -3.18 2.46 -6.79 0 -3.11 0.22 -4.05 1.08 -4.05 0.58 0 1.08 0.43 1.08 0.94 0 0.43 0.72 1.23 1.66 1.66 0.87 0.43 5.35 2.82 9.83 5.28 4.55 2.38 8.38 4.41 8.53 4.41 0.14 0 0.22 -0.51 0.22 -1.08 0 -1.73 1.16 -1.23 3.18 1.37 2.82 3.76 2.67 10.33 -0.65 20.52 -1.37 4.26 -2.89 8.31 -3.40 9.03 -0.51 0.65 -2.53 2.31 -4.55 3.61 -3.90 2.53 -4.55 3.54 -9.18 15.25 -6.72 16.84 -10.48 34.54 -11.20 51.96 l-0.43 10.62 -13.73 0 -13.73 0 0.43 -9.18z"/>
  <path d="M206.68 433.38 c0 -19.44 -6.43 -46.76 -15.03 -64.10 -2.17 -4.48 -3.32 -5.85 -6.29 -7.73 -1.95 -1.30 -4.05 -2.96 -4.55 -3.61 -2.10 -2.82 -6.21 -17.85 -6.21 -22.84 -0.07 -4.48 0.14 -5.13 1.81 -6.58 1.01 -0.94 2.10 -2.10 2.24 -2.67 0.22 -0.58 0.72 0 1.16 1.52 0.43 1.37 0.79 2.02 0.79 1.30 0.07 -0.72 3.40 -3.11 8.53 -6.14 10.19 -5.93 9.61 -5.71 10.48 -4.48 0.51 0.72 0.58 0.43 0.36 -1.01 -0.22 -1.23 0 -1.95 0.58 -1.95 1.08 0 1.81 2.31 1.81 5.85 0 1.88 0.58 3.11 2.17 4.63 1.16 1.08 3.11 4.41 4.34 7.30 4.34 10.41 5.42 18.14 3.11 21.97 -1.16 2.10 -1.16 2.17 3.25 11.49 11.56 24.21 16.40 41.91 17.92 65.33 l0.51 7.73 -13.51 0 -13.44 0 0 -6z"/>
  <path d="M549.22 398.69 c0 -44.80 0 -44.95 -4.48 -53.55 -3.25 -6.21 -13.01 -15.75 -21.17 -20.74 l-6.50 -3.90 -0.22 -10.70 c-0.14 -8.17 0 -10.70 0.72 -10.91 0.51 -0.22 2.31 -0.51 3.97 -0.72 2.46 -0.36 3.04 -0.22 3.32 0.79 0.22 0.94 0.36 1.01 0.43 0.22 0.07 -0.94 5.06 -1.08 40.54 -1.08 31.87 0 40.47 0.22 40.47 0.94 0 0.43 0.51 0.87 1.08 0.87 0.58 0 1.08 -0.51 1.08 -1.16 0 -0.79 0.36 -1.01 1.16 -0.72 0.65 0.22 2.24 0.43 3.61 0.43 l2.46 0 0 10.77 0 10.77 -8.17 5.42 c-9.25 6.14 -15.61 12.50 -19.08 19.01 -4.55 8.53 -4.55 8.67 -4.55 53.91 l0 41.05 -17.34 0 -17.34 0 0 -40.69z m-20.60 -89.39 c-0.36 -0.58 -0.79 -0.58 -1.23 -0.14 -0.43 0.43 -0.51 1.16 -0.22 1.59 0.36 0.58 0.79 0.58 1.23 0.14 0.43 -0.43 0.51 -1.16 0.22 -1.59z m75.88 0 c-0.36 -0.58 -0.79 -0.58 -1.23 -0.14 -0.43 0.43 -0.51 1.16 -0.22 1.59 0.36 0.58 0.79 0.58 1.23 0.14 0.43 -0.43 0.51 -1.16 0.22 -1.59z"/>
 </g>
 <g fill="#b0b5bc">
  <path d="M402.95 659.35 c-0.58 -1.45 -0.58 -21.10 0 -23.20 0.29 -0.94 0.94 -1.66 1.45 -1.66 0.79 0 1.01 2.38 1.01 13.01 0 10.62 -0.22 13.01 -1.01 13.01 -0.58 0 -1.23 -0.51 -1.45 -1.16z"/>
  <path d="M668.46 435.04 c0 -7.52 0.22 -9.39 1.01 -9.39 1.52 0 1.88 1.66 1.88 8.89 0 7.59 -0.43 9.90 -1.88 9.90 -0.79 0 -1.01 -1.88 -1.01 -9.39z"/>
  <path d="M491.41 341.96 l0 -97.41 -4.12 -3.61 c-2.31 -1.95 -10.04 -8.74 -17.20 -15.10 -7.23 -6.36 -23.92 -21.17 -37.22 -32.88 -57.67 -50.88 -57.45 -50.66 -57.67 -53.04 -0.22 -2.46 0.22 -2.89 40.69 -37.79 8.38 -7.15 20.38 -17.63 26.74 -23.27 11.56 -10.19 13.51 -11.35 17.92 -10.77 1.95 0.22 8.46 5.78 75.88 64.89 20.67 18.07 38.30 33.46 39.24 34.18 l1.73 1.37 0 -19.22 0 -19.22 22.40 0 22.40 0 0 39.31 0 39.24 10.98 9.68 c6 5.35 15.32 13.51 20.60 18.21 l9.61 8.60 0 97.13 0 97.13 -39.02 0 -39.02 0 0 -40.97 c0 -25.15 0.29 -42.85 0.79 -45.74 1.88 -11.92 9.97 -21.10 26.88 -30.64 1.95 -1.08 3.76 -2.82 4.19 -3.76 0.36 -1.01 0.65 -5.56 0.65 -10.12 0 -7.30 -0.14 -8.38 -1.45 -9.68 -0.79 -0.79 -2.10 -1.45 -2.89 -1.45 -1.37 0 -1.45 -0.51 -1.45 -7.15 0 -4.99 -0.36 -7.73 -1.08 -9.18 -0.94 -1.81 -1.08 -5.93 -1.08 -27.03 0.14 -29.63 0.22 -26.38 -1.16 -27.75 -1.01 -1.01 -5.71 -1.16 -41.26 -1.16 -39.38 0 -40.11 0 -42.20 1.52 l-2.10 1.45 0 26.09 c0 23.70 -0.14 26.23 -1.23 27.46 -0.94 1.08 -1.30 3.11 -1.52 8.46 l-0.29 7.08 -2.38 0.87 c-1.45 0.51 -2.53 1.45 -2.82 2.46 -0.72 2.82 -0.43 16.26 0.43 18.21 0.51 1.08 3.04 3.11 6.29 4.99 15.10 8.74 23.13 18.14 25.37 29.99 0.43 2.38 0.72 20.02 0.72 44.95 l0 41.12 -28.18 0 -28.18 0 0 -97.41z"/>
 </g>
 <g fill="#585f6d">
  <path d="M288.34 636.30 c0 -4.91 0.14 -5.42 1.45 -5.42 1.30 0 1.45 0.51 1.45 5.42 0 4.91 -0.14 5.42 -1.45 5.42 -1.30 0 -1.45 -0.51 -1.45 -5.42z"/>
  <path d="M654 446.75 c0 -2.89 2.24 -3.76 9.61 -3.76 3.83 0 7.01 0.29 7.01 0.65 0 0.29 -0.65 1.45 -1.52 2.53 -1.37 1.81 -1.81 1.88 -8.31 1.88 -6.14 0 -6.79 -0.14 -6.79 -1.30z"/>
  <path d="M572.34 258.35 c0 -5.64 0.14 -6.14 1.45 -6.14 1.30 0 1.45 0.51 1.45 6.14 0 5.64 -0.14 6.14 -1.45 6.14 -1.30 0 -1.45 -0.51 -1.45 -6.14z"/>
 </g>
 <g fill="#c12328">
  <path d="M248.59 341.96 l0 -97.41 20.45 -17.78 c11.20 -9.76 28.04 -24.35 37.36 -32.45 9.32 -8.09 24.14 -20.96 32.81 -28.47 8.74 -7.59 18.57 -16.12 21.82 -18.93 5.35 -4.63 6.36 -5.28 8.96 -5.28 3.18 0 -0.51 -3.04 41.84 34.33 11.27 9.90 25 21.97 30.42 26.74 5.42 4.77 14.96 13.22 21.32 18.79 6.29 5.56 14.53 12.86 18.36 16.19 3.83 3.40 7.15 6.65 7.44 7.23 0.29 0.65 0.51 44.66 0.51 97.85 l0.07 96.62 -54.56 0 -54.56 0 0 -20.02 c0 -22.55 -0.29 -23.78 -5.28 -28.18 l-2.67 -2.31 0 -53.91 0 -53.84 4.19 -0.07 c11.63 -0.07 14.60 -2.02 14.60 -9.68 0 -2.53 0.29 -4.77 0.65 -5.06 0.43 -0.22 4.19 -0.58 8.53 -0.79 9.32 -0.58 12.43 0.14 17.20 3.83 l3.47 2.75 9.97 0.22 c14.38 0.36 15.54 -0.51 17.71 -12.94 0.65 -3.97 0.94 -8.09 0.65 -10.33 -1.30 -10.41 -3.32 -16.26 -6.21 -17.78 -0.94 -0.51 -5.20 -0.72 -11.85 -0.58 l-10.33 0.22 -2.96 2.38 c-4.70 3.76 -7.15 4.48 -15.03 4.41 -10.70 -0.14 -11.27 -0.36 -12.14 -4.55 -1.45 -6.65 0.36 -6.36 -35.84 -6.07 -29.56 0.22 -31.65 0.29 -33.03 1.59 -0.87 0.72 -1.59 2.02 -1.73 2.89 -0.22 1.30 -1.08 1.66 -6.72 2.67 -21.17 3.76 -41.99 16.12 -51.74 30.57 -3.18 4.77 -3.47 6.14 -1.30 8.09 1.52 1.37 1.59 1.30 9.18 -2.75 15.18 -8.02 28.18 -11.42 43.36 -11.42 l6.50 0 0.29 9.03 c0.22 8.74 0.29 9.03 2.24 10.98 1.88 1.88 2.38 2.02 9.90 2.24 l7.95 0.29 0 53.77 0 53.77 -3.18 3.11 c-1.95 1.88 -3.47 4.12 -3.97 5.93 -0.51 1.73 -0.79 10.41 -0.79 22.26 l0 19.29 -41.91 0 -41.91 0 0 -97.41z"/>
 </g>
 <g fill="#0c2c74">
  <path d="M141.86 440.31 l-4.55 -0.29 0 -10.41 c0 -17.85 2.46 -31.65 8.96 -50.59 4.99 -14.60 5.56 -15.75 9.39 -17.99 4.70 -2.75 6.50 -5.49 9.39 -14.96 2.82 -9.11 3.18 -11.92 1.52 -14.09 -1.37 -1.88 -1.30 -5.64 0.29 -10.41 1.23 -3.90 1.37 -3.97 4.19 -4.19 2.89 -0.22 2.89 -0.22 4.12 3.40 1.45 4.55 1.52 9.76 0 12 -1.08 1.66 -1.08 2.17 0.07 7.01 0.72 2.89 2.24 7.80 3.40 10.84 2.10 5.64 4.84 8.89 9.68 11.49 1.73 0.94 2.67 2.60 5.28 9.39 8.74 22.47 12.36 40.54 12.36 61.43 l0 6.94 -11.35 0.43 c-11.35 0.51 -44.15 0.43 -52.75 0z"/>
  <path d="M78.77 342.61 l0 -97.56 9.54 -8.53 c5.20 -4.70 15.39 -13.66 22.55 -20.02 7.23 -6.29 14.60 -12.94 16.55 -14.74 l3.40 -3.32 0 -39.60 0 -39.60 22.04 0 22.04 0 0 19.58 c0 12.21 0.29 19.44 0.72 19.29 0.87 -0.29 9.97 -8.17 61.93 -53.48 38.37 -33.53 43.14 -37.43 45.31 -37.43 2.02 0 3.69 1.08 9.90 6.58 4.12 3.61 10.77 9.47 14.74 12.94 3.97 3.47 11.78 10.33 17.34 15.25 5.64 4.91 16.91 14.81 25.15 21.97 19.15 16.55 18.72 14.89 5.85 26.52 -4.99 4.48 -10.41 9.32 -12.07 10.70 -1.66 1.37 -9.03 7.73 -16.40 14.09 -7.37 6.36 -14.67 12.72 -16.33 14.09 -3.11 2.67 -24.28 21.17 -42.93 37.58 -6.14 5.42 -12.36 10.77 -13.88 11.92 -2.24 1.81 -2.53 2.38 -2.24 4.34 0.22 1.37 0 2.53 -0.43 2.82 -0.58 0.36 -0.79 26.74 -0.79 95.90 0 84.26 0.14 95.32 1.08 95.32 1.73 0 1.23 2.10 -0.51 2.53 -0.94 0.22 -5.06 0.36 -9.25 0.22 l-7.59 -0.22 -0.51 -2.89 c-0.29 -1.59 -0.87 -7.08 -1.30 -12.21 -1.45 -16.55 -6.79 -34.11 -16.62 -54.63 -5.35 -11.06 -6.14 -14.74 -3.97 -17.63 1.52 -2.02 1.37 -4.70 -0.79 -10.70 -2.31 -6.36 -4.91 -11.71 -7.23 -14.81 -1.30 -1.73 -1.73 -3.18 -1.73 -6 0 -6.50 -3.97 -12.79 -9.18 -14.53 l-2.38 -0.79 0 -6.36 c0 -6 0.07 -6.43 1.81 -7.52 1.08 -0.72 1.81 -1.88 1.81 -2.89 0 -2.10 -3.32 -16.04 -7.15 -30.06 -1.52 -5.78 -4.34 -15.97 -6.14 -22.76 -4.99 -18.28 -4.63 -17.71 -11.92 -17.71 -3.69 0 -4.48 0.22 -5.49 1.66 -2.02 2.89 -9.90 30.50 -17.13 60.05 l-2.24 9.32 1.45 1.16 c0.79 0.65 2.02 1.52 2.60 1.88 0.79 0.51 1.23 2.60 1.59 7.30 l0.51 6.58 -2.17 0.87 c-2.60 1.08 -7.01 5.56 -8.02 8.17 -0.36 1.01 -0.51 3.61 -0.29 5.78 0.36 3.40 0.14 4.12 -1.37 6 -2.96 3.54 -6.36 10.91 -8.74 18.93 -1.01 3.47 -1.01 3.83 0.29 6.29 2.24 4.19 1.73 6.87 -2.53 15.46 -12.07 24.06 -18.43 46.11 -18.72 64.82 l-0.14 7.23 -14.96 0.22 -15.03 0.14 0 -97.49z"/>
 </g>
 <g fill="#1e335a">
  <path d="M76.60 446.82 c0 -0.65 0.58 -1.81 1.23 -2.53 0.87 -0.94 1.16 -2.38 1.01 -4.91 -0.14 -2.89 0.07 -3.61 0.94 -3.61 0.65 0 1.16 0.51 1.16 1.08 0 0.94 1.73 1.08 12.86 0.94 11.71 -0.22 12.79 -0.29 12.57 -1.45 -0.14 -1.01 0.29 -1.30 2.38 -1.30 1.73 0 2.53 0.29 2.53 1.08 0 0.94 1.73 1.08 11.56 1.08 9.83 0 11.56 -0.14 11.56 -1.08 0 -0.72 0.79 -1.08 2.53 -1.08 2.02 0 2.53 0.29 2.53 1.37 0 1.23 0.65 1.45 4.91 1.73 5.56 0.36 39.24 0.29 51.31 -0.07 7.44 -0.22 8.09 -0.36 8.09 -1.66 0 -1.08 0.51 -1.37 2.53 -1.37 1.73 0 2.53 0.36 2.53 1.08 0 0.94 1.73 1.08 11.20 1.08 9.47 0 11.20 -0.14 11.20 -1.08 0 -1.66 4.84 -1.52 5.20 0.14 0.22 1.23 2.82 1.30 44.52 1.01 l44.23 -0.22 0 1.52 0 1.52 -35.41 0 c-34.90 0 -35.41 0 -35.41 1.45 0 1.45 0.51 1.45 203.07 1.45 180.01 0 203.07 0.14 203.07 1.08 0 0.58 -0.43 1.08 -0.94 1.08 -0.58 0 -1.59 0.65 -2.31 1.45 -1.30 1.45 -2.24 1.45 -291.01 1.45 -270.20 0 -289.64 -0.07 -289.64 -1.23z"/>
  <path d="M512.36 307.85 c0 -6 0.07 -6.50 1.45 -6.50 1.37 0 1.45 0.51 1.45 6.50 0 6 -0.07 6.50 -1.45 6.50 -1.37 0 -1.45 -0.51 -1.45 -6.50z"/>
  <path d="M181.39 286.10 c-4.77 -4.05 -12.43 -5.28 -18.64 -2.96 -3.76 1.45 -5.20 1.37 -5.20 -0.29 0 -3.25 11.92 -4.99 19.22 -2.82 5.71 1.66 12.50 8.38 8.46 8.31 -0.72 -0.07 -2.46 -1.01 -3.83 -2.24z"/>
  <path d="M572.34 232.33 l0 -5.42 2.53 0 c1.37 0 2.53 0.36 2.53 0.72 0 0.43 -0.51 0.72 -1.08 0.72 -0.87 0 -1.08 1.01 -1.08 4.70 0 4.19 -0.14 4.70 -1.45 4.70 -1.30 0 -1.45 -0.51 -1.45 -5.42z"/>
 </g>
 <g fill="#082160">
  <path d="M457.44 676.04 c-4.26 -1.37 -8.60 -5.64 -7.52 -7.44 1.30 -2.02 4.55 -1.95 6.79 0.22 1.59 1.52 2.82 1.95 5.71 2.02 3.32 0.14 3.90 -0.07 6.21 -2.38 2.10 -2.10 2.67 -3.32 3.04 -6.36 0.43 -4.12 -0.07 -4.55 -3.40 -2.67 -2.89 1.66 -9.97 1.37 -13.37 -0.58 -6 -3.40 -9.11 -12.21 -6.58 -18.79 1.66 -4.41 6.07 -8.46 9.97 -9.25 4.99 -0.94 8.02 -0.72 10.84 0.79 2.17 1.16 2.67 1.23 3.04 0.36 0.22 -0.65 1.37 -1.08 2.96 -1.08 l2.60 0 -0.22 18.28 -0.22 18.36 -1.95 2.89 c-3.47 5.20 -11.42 7.73 -17.92 5.64z m11.27 -23.70 c6.29 -5.78 2.46 -16.40 -5.93 -16.40 -4.63 0 -8.24 3.40 -8.74 8.17 -0.72 6.43 2.82 10.62 9.03 10.62 2.46 0 3.54 -0.43 5.64 -2.38z"/>
  <path d="M160.65 660.51 c-4.05 -0.94 -7.73 -3.32 -9.90 -6.36 -1.73 -2.46 -1.95 -3.18 -1.16 -4.12 1.52 -1.81 4.26 -1.30 6.72 1.37 5.56 5.85 17.05 5.06 19.73 -1.45 2.10 -4.99 -1.08 -7.88 -11.49 -10.77 -7.37 -2.02 -9.90 -3.25 -12.29 -6.14 -3.69 -4.34 -3.40 -9.97 0.72 -14.53 3.04 -3.32 5.85 -4.26 13.08 -4.26 7.01 0 11.71 2.38 14.31 7.37 1.01 1.95 1.01 1.95 -1.95 2.75 -2.75 0.72 -3.04 0.65 -4.41 -1.08 -3.04 -3.83 -8.82 -5.06 -13.95 -2.96 -2.75 1.16 -3.97 3.04 -3.97 6.14 0 2.89 2.53 4.77 8.96 6.58 11.56 3.32 15.46 5.78 17.05 10.55 3.47 10.55 -8.53 20.02 -21.46 16.91z"/>
  <path d="M590.19 660.22 c-3.69 -1.01 -5.93 -2.67 -7.44 -5.56 -0.72 -1.45 -0.72 -2.10 -0.07 -2.75 1.45 -1.45 4.77 -0.94 6.50 1.08 3.11 3.54 10.98 2.75 10.98 -1.16 0 -2.02 -1.66 -3.04 -7.88 -4.77 -8.74 -2.31 -11.63 -8.38 -6.65 -13.80 2.38 -2.60 2.67 -2.75 7.80 -2.96 5.78 -0.22 8.74 0.94 11.06 4.48 1.45 2.17 1.01 3.04 -1.73 3.69 -1.66 0.36 -2.46 0.07 -3.97 -1.37 -2.89 -2.96 -9.11 -2.24 -9.11 1.01 0 1.81 2.31 3.25 7.08 4.34 4.99 1.16 8.24 3.47 9.25 6.50 2.53 7.73 -6.14 13.95 -15.83 11.27z"/>
  <path d="M228.36 659.35 c-12.43 -5.42 -11.56 -24.86 1.30 -28.47 10.70 -2.96 19.58 2.82 20.52 13.37 l0.22 2.89 -11.56 0.22 c-6.36 0.07 -11.85 0.51 -12.21 0.87 -0.43 0.43 -0.36 1.30 0.22 2.38 2.31 4.34 9.32 5.49 14.02 2.24 2.82 -1.88 7.01 -2.17 7.52 -0.58 0.43 1.30 -3.32 5.28 -6.36 6.79 -3.40 1.73 -9.97 1.88 -13.66 0.29z m15.18 -17.92 c0 -1.81 -2.96 -4.70 -5.64 -5.42 -3.47 -1.01 -7.66 0.14 -9.97 2.60 -3.25 3.47 -2.60 3.83 6.94 3.83 6.87 0 8.67 -0.22 8.67 -1.01z"/>
  <path d="M288.63 659.42 c-0.22 -0.58 -0.29 -7.30 -0.14 -14.96 l0.36 -13.95 2.75 0 c2.38 0 2.89 0.29 3.32 1.81 0.29 1.01 0.51 1.45 0.58 0.94 0.07 -1.23 2.02 -2.10 6.07 -2.67 l3.40 -0.51 0 2.89 c0 1.88 -0.36 2.96 -0.87 2.96 -3.11 0 -6.36 1.66 -7.73 3.90 -1.30 2.10 -1.52 3.61 -1.52 11.56 l0 9.11 -2.89 0 c-1.88 0 -3.11 -0.36 -3.32 -1.08z"/>
  <path d="M349.12 658.77 c-0.36 -0.94 -2.96 -7.23 -5.78 -13.95 -2.82 -6.79 -5.13 -12.72 -5.13 -13.15 0 -0.58 1.08 -0.79 2.96 -0.65 2.89 0.22 3.04 0.36 4.77 4.55 1.01 2.38 2.75 6.79 3.83 9.76 l2.02 5.42 0.87 -2.17 c0.43 -1.16 2.31 -5.85 4.12 -10.26 l3.32 -8.17 3.11 0 c1.73 0 3.18 0.22 3.18 0.43 0 0.22 -1.73 4.55 -3.90 9.54 -2.10 5.06 -4.91 11.71 -6.21 14.81 -2.10 5.13 -2.46 5.56 -4.41 5.56 -1.59 0 -2.31 -0.43 -2.75 -1.73z"/>
  <path d="M403.24 647.36 c0 -7.30 -0.22 -13.95 -0.43 -14.81 -0.43 -1.52 -0.22 -1.66 2.89 -1.66 l3.32 0 0 14.81 0 14.81 -2.89 0 -2.89 0 0 -13.15z"/>
  <path d="M523.20 658.92 c-4.99 -2.67 -7.52 -6.79 -7.80 -12.79 -0.22 -3.90 0 -5.49 1.23 -7.80 2.82 -5.56 7.59 -8.17 14.89 -8.17 4.63 0 8.60 2.24 11.49 6.36 1.81 2.53 2.24 3.97 2.46 7.95 0.22 4.05 0 5.35 -1.45 8.09 -2.67 4.99 -6.79 7.52 -12.72 7.80 -4.05 0.22 -5.35 0 -8.09 -1.45z m12.14 -5.64 c5.85 -3.61 5.49 -13.15 -0.65 -16.33 -4.70 -2.38 -10.12 -0.65 -12.57 4.05 -3.11 6.07 1.52 13.73 8.31 13.73 1.37 0 3.61 -0.65 4.91 -1.45z"/>
  <path d="M403.68 624.88 c-0.87 -0.65 -1.23 -1.66 -1.01 -3.04 0.22 -1.95 0.51 -2.17 2.89 -2.38 3.47 -0.29 4.91 1.88 3.11 4.63 -1.23 1.95 -3.04 2.24 -4.99 0.79z"/>
 </g>
 <g fill="#131e38">
  <path d="M247.73 444.65 l4.48 -0.29 0 -2.31 c0 -1.30 -0.36 -2.75 -0.87 -3.25 -0.65 -0.65 6.79 -0.87 33.46 -0.87 18.93 0 36.86 -0.22 39.89 -0.43 l5.56 -0.51 0 -19.22 c0 -11.71 0.29 -20.38 0.79 -22.11 0.51 -1.81 2.02 -4.05 3.97 -5.93 l3.18 -3.11 0 -51.60 0 -51.60 -7.95 -0.29 c-7.52 -0.22 -8.02 -0.36 -9.90 -2.24 -1.95 -1.95 -2.02 -2.24 -2.24 -10.98 l-0.29 -9.03 -4.34 0 c-13.08 0 -26.81 3.83 -41.63 11.71 -8.96 4.77 -11.13 4.99 -13.88 1.52 -1.95 -2.53 -1.81 -4.99 0.65 -9.25 8.67 -15.10 31 -28.83 53.19 -32.81 5.64 -1.01 6.50 -1.37 6.72 -2.67 0.14 -0.87 0.87 -2.17 1.73 -2.89 1.37 -1.30 3.54 -1.37 35.19 -1.59 38.66 -0.29 36.57 -0.58 38.01 6.07 0.87 4.05 1.59 4.41 9.97 4.55 5.56 0.07 8.53 -0.94 12.86 -4.41 l2.96 -2.38 12.50 -0.22 c8.17 -0.14 13.08 0.07 14.02 0.58 4.99 2.60 7.80 19.44 5.56 32.38 -2.24 12.86 -3.04 13.37 -19.87 13.01 l-12.14 -0.22 -3.47 -2.75 c-4.77 -3.69 -7.95 -4.41 -15.54 -3.69 l-6.14 0.65 -0.36 5.20 c-0.51 7.88 -3.04 9.47 -14.60 9.54 l-4.19 0.07 0 51.67 0 51.74 2.67 2.31 c4.99 4.41 5.28 5.64 5.28 28.18 l0 20.02 52.39 0 52.39 0 -0.07 -94.45 c0 -52.03 -0.22 -95.03 -0.51 -95.68 -0.29 -0.58 -3.61 -3.83 -7.44 -7.23 -3.83 -3.32 -12.07 -10.62 -18.36 -16.19 -6.36 -5.56 -15.90 -14.02 -21.32 -18.79 -5.42 -4.77 -19.15 -16.84 -30.42 -26.74 -36.06 -31.80 -38.95 -34.33 -39.67 -34.33 -0.72 0 -2.46 1.45 -23.20 19.51 -5.71 4.99 -21.25 18.50 -34.54 29.99 -13.30 11.56 -32.66 28.33 -43 37.36 -16.77 14.53 -18.93 16.19 -19.29 14.74 -0.22 -0.87 -0.87 -2.31 -1.45 -3.25 -0.94 -1.52 -0.79 -1.81 2.17 -4.26 3.11 -2.53 9.03 -7.73 41.19 -35.92 7.73 -6.72 15.39 -13.44 16.98 -14.81 24.79 -21.25 42.20 -36.42 50.95 -44.52 2.89 -2.67 3.18 -3.18 2.24 -4.19 -0.87 -1.08 -0.79 -1.30 0.58 -1.66 0.87 -0.22 1.59 -0.65 1.59 -1.01 0 -1.16 3.97 -2.75 5.13 -2.02 0.87 0.43 4.84 -2.60 17.05 -13.30 8.74 -7.66 19.01 -16.48 22.69 -19.73 3.76 -3.25 16.19 -14.02 27.61 -24.06 11.42 -9.97 21.39 -18.14 22.04 -18.14 0.72 0 7.30 5.28 14.67 11.78 51.09 44.73 96.98 84.77 97.56 84.91 0.36 0.14 0.72 -6.65 0.79 -15.54 l0.22 -15.75 28.40 -0.22 28.33 -0.14 0 41.48 0 41.55 9.61 8.46 c12.43 11.13 18.28 16.26 25.80 22.69 l6.14 5.28 0.36 92.21 c0.22 50.73 0.22 96.11 0 100.88 l-0.36 8.67 -213.54 0.07 c-117.43 0 -211.52 -0.07 -208.99 -0.22z m129.43 -26.38 c0 -12.72 -0.29 -19.80 -0.87 -21.54 -0.58 -1.59 -1.95 -3.25 -3.97 -4.55 l-3.04 -2.02 0.14 -55.79 0.22 -55.79 8.46 -0.36 c4.70 -0.22 8.82 -0.72 9.18 -1.08 0.43 -0.43 0.79 -3.32 0.94 -6.50 0.22 -5.49 0.29 -5.78 2.24 -6.72 1.08 -0.51 5.35 -1.16 9.39 -1.37 9.32 -0.51 13.88 0.43 18.43 4.05 l3.40 2.60 10.70 0 c8.67 0 10.77 -0.22 11.35 -1.08 2.75 -4.19 3.69 -18.64 1.88 -27.03 -0.72 -3.04 -1.73 -6 -2.38 -6.65 -0.94 -0.94 -2.82 -1.08 -11.35 -0.87 l-10.26 0.22 -3.18 2.75 c-1.73 1.45 -4.48 3.04 -6.07 3.47 -4.12 1.16 -18.14 0.43 -21.54 -1.01 -2.53 -1.08 -2.67 -1.30 -2.89 -4.99 l-0.22 -3.83 -30.35 -0.22 c-16.69 -0.07 -31.07 0 -31.94 0.22 -1.23 0.29 -1.66 1.01 -1.81 3.11 -0.22 2.60 -0.36 2.67 -3.11 2.89 -14.31 1.01 -30.06 6.87 -41.55 15.32 -9.68 7.23 -19.66 19.51 -15.75 19.51 0.43 0 4.19 -1.81 8.31 -3.97 8.17 -4.41 19.51 -8.46 26.96 -9.76 2.60 -0.43 9.25 -0.72 14.81 -0.58 l10.12 0.22 0.36 10.12 0.36 10.12 9.76 0.36 9.76 0.36 0.22 56.51 c0.14 54.20 0.07 56.51 -1.16 56.87 -0.72 0.29 -2.24 1.37 -3.32 2.53 -2.67 2.82 -3.32 7.66 -3.32 27.39 l0 16.04 20.60 0 20.60 0 -0.07 -18.93z m168.45 -20.02 c0 -23.41 -0.29 -40.47 -0.72 -42.78 -2.24 -11.85 -10.26 -21.25 -25.37 -29.99 -3.83 -2.24 -5.78 -3.83 -6.29 -5.20 -0.58 -1.52 -0.72 -17.85 -0.22 -23.05 0 -0.43 1.16 -1.23 2.53 -1.73 l2.46 -0.87 0.29 -7.08 c0.22 -5.35 0.58 -7.37 1.52 -8.46 1.08 -1.23 1.23 -3.76 1.23 -27.46 l0 -26.09 2.10 -1.45 c2.10 -1.52 2.82 -1.52 44.37 -1.52 37.51 0 42.42 0.14 43.43 1.16 0.65 0.58 1.23 1.52 1.23 1.95 0.07 0.51 0.07 12.07 0 25.80 -0.14 21.39 0 25.22 0.94 27.03 0.87 1.45 1.16 4.12 1.16 9.18 0 6.65 0.07 7.15 1.45 7.15 0.79 0 2.10 0.65 2.89 1.45 1.30 1.30 1.45 2.38 1.45 11.85 0 5.78 -0.29 11.27 -0.65 12.29 -0.43 0.94 -2.24 2.67 -4.19 3.76 -17.13 9.68 -25 18.72 -26.96 31 -0.51 3.18 -0.72 18.43 -0.65 43.50 l0.07 38.52 36.78 0 36.78 0 0 -94.96 0 -94.96 -9.61 -8.60 c-5.28 -4.70 -14.60 -12.86 -20.60 -18.21 l-10.98 -9.68 0 -39.24 0 -39.31 -20.23 0 -20.23 0 0 20.96 c0 11.56 -0.22 20.96 -0.43 20.96 -0.22 0 -5.85 -4.84 -12.43 -10.70 -12.65 -11.20 -57.16 -50.08 -88.24 -77.11 -19.44 -16.84 -20.09 -17.27 -23.49 -14.24 -5.56 4.99 -27.89 24.43 -41.26 35.99 -30.28 26.02 -36.49 31.65 -35.99 32.09 0.36 0.29 7.73 6.79 16.48 14.53 8.74 7.73 26.02 22.98 38.30 33.89 12.36 10.84 30.28 26.67 39.82 35.19 9.61 8.46 18.28 16.04 19.37 16.91 l1.88 1.45 0 97.56 0 97.49 26.02 0 26.02 0 0 -38.95z m36.13 -2.10 c0 -45.24 0 -45.38 4.55 -53.91 3.47 -6.50 9.83 -12.86 19.08 -19.01 l8.17 -5.42 0 -8.60 0 -8.60 -2.67 0 -2.75 0 0.22 -8.31 0.22 -8.31 -41.91 0 -41.99 0 0 8.24 0 8.31 -2.67 0.22 -2.75 0.22 0 8.67 0 8.67 6.50 3.90 c8.17 4.99 17.92 14.53 21.17 20.74 4.48 8.60 4.48 8.74 4.48 53.55 l0 40.69 15.18 0 15.18 0 0 -41.05z m24.57 -142.51 l0 -25.29 -3.25 0 -3.25 0 0 18.72 c0 16.19 -0.14 18.79 -1.16 19.66 -0.79 0.65 -1.45 0.72 -2.31 0.14 -1.08 -0.65 -1.23 -2.89 -1.45 -19.66 l-0.14 -18.86 -3.61 0 -3.61 0 0 19.08 c0 18.64 -0.07 19.15 -1.45 19.58 -3.40 1.08 -3.61 0.07 -3.61 -20.02 l0 -18.72 -3.76 0.22 -3.76 0.22 -0.07 19.15 c0 17.85 -0.07 19.15 -1.30 19.37 -3.25 0.65 -3.40 -0.36 -3.40 -20.16 l0 -18.72 -3.61 0 -3.61 0 0 18.36 c0 10.12 -0.22 18.86 -0.43 19.51 -0.51 1.37 -2.53 1.52 -3.76 0.29 -0.65 -0.65 -0.87 -6 -0.87 -19.51 l0 -18.64 -3.61 0 -3.61 0 0 18.64 c0 10.19 -0.29 19.01 -0.65 19.58 -0.43 0.65 -1.30 0.79 -2.53 0.51 l-1.88 -0.43 0 -19.15 0 -19.15 -3.61 0 -3.61 0 0 19.15 c0 17.13 -0.14 19.22 -1.16 19.66 -0.65 0.22 -1.73 0.14 -2.38 -0.29 -1.01 -0.65 -1.16 -3.18 -1.37 -19.66 l-0.14 -18.86 -3.25 0 -3.25 0 0 25.29 0 25.29 39.75 0 39.75 0 0 -25.29z"/>
  <path d="M526.31 313.56 c-1.95 -0.72 -2.82 -3.54 -1.66 -5.64 0.51 -1.08 1.45 -1.52 3.11 -1.52 2.89 0 4.12 1.08 4.12 3.69 0 2.89 -2.67 4.55 -5.56 3.47z"/>
  <path d="M600.67 312.77 c-0.51 -0.51 -0.87 -1.73 -0.87 -2.75 0 -2.46 1.23 -3.61 3.97 -3.61 2.75 0 3.97 1.16 3.97 3.61 0 2.46 -1.23 3.61 -3.97 3.61 -1.23 0 -2.60 -0.36 -3.11 -0.87z"/>
  <path d="M525.37 298.46 l0 -2.17 40.47 0 40.47 0 0 2.17 0 2.17 -40.47 0 -40.47 0 0 -2.17z"/>
  <path d="M106.45 436.05 c-0.65 -1.73 1.01 -17.63 2.67 -25.65 2.89 -14.02 6.72 -24.71 14.96 -41.91 l5.42 -11.27 -1.52 -2.82 c-2.02 -3.76 -1.95 -5.78 0.65 -13.37 2.46 -7.30 5.20 -13.08 7.66 -16.04 1.23 -1.45 1.59 -2.60 1.30 -3.83 -0.22 -0.94 -0.14 -1.73 0.14 -1.73 0.36 0 0.65 -1.81 0.72 -3.97 0.07 -4.77 1.95 -6.79 6.29 -6.87 l2.82 0 -2.67 3.04 c-2.60 3.04 -2.60 3.18 -2.46 8.67 0.22 5.42 0.14 5.56 -2.38 8.38 -2.60 2.89 -7.44 14.09 -8.31 19.15 -0.36 2.17 0 3.25 1.59 5.56 l2.02 2.89 -6.21 13.15 c-11.71 25.22 -16.19 40.61 -17.56 60.41 l-0.51 7.37 -2.10 0 c-1.23 0 -2.24 -0.43 -2.53 -1.16z"/>
  <path d="M134.63 426.58 c0.72 -17.42 4.48 -35.12 11.20 -51.96 4.63 -11.71 5.28 -12.72 9.18 -15.25 2.02 -1.30 4.05 -2.96 4.55 -3.61 1.59 -2.24 5.93 -16.69 5.93 -19.87 -0.07 -2.17 -0.58 -3.76 -1.73 -5.20 l-1.73 -2.10 1.37 -3.97 c1.88 -5.49 1.81 -6.21 -1.08 -7.23 -2.96 -1.08 -10.55 -6 -10.55 -6.79 0 -0.36 0.72 -0.94 1.66 -1.37 1.37 -0.65 2.24 -0.36 5.42 1.81 5.42 3.61 10.77 4.63 16.62 3.11 4.84 -1.30 10.48 -4.63 11.71 -7.08 1.30 -2.31 1.66 -8.02 0.79 -11.27 -0.43 -1.66 -1.95 -4.55 -3.32 -6.36 -1.73 -2.24 -2.17 -3.25 -1.45 -3.25 0.79 0 0.72 -0.36 -0.43 -1.52 -0.79 -0.79 -1.30 -1.73 -1.01 -1.95 0.29 -0.29 2.38 1.52 4.63 3.97 4.05 4.41 4.19 4.48 5.85 3.32 l1.66 -1.16 -0.58 4.26 c-0.79 5.93 -0.79 9.90 0.07 10.19 0.36 0.14 2.31 1.30 4.26 2.60 4.55 2.96 6.87 7.15 6.87 12.65 0 2.96 0.43 4.41 1.73 6.14 3.69 4.91 8.09 15.61 9.18 22.19 0.51 3.32 0.43 4.41 -0.87 7.01 l-1.52 3.18 5.13 10.62 c6.50 13.51 10.41 24.06 13.44 35.92 2.10 8.24 2.82 13.30 4.34 29.85 l0.36 3.76 -2.46 0 -2.46 0 -0.43 -4.84 c-2.24 -24.50 -6.43 -39.60 -18.07 -64.24 -2.53 -5.56 -4.77 -10.55 -4.91 -11.13 -0.07 -0.58 0.58 -2.31 1.52 -3.83 1.52 -2.53 1.66 -3.11 0.94 -6.65 -1.37 -6.79 -5.20 -15.54 -8.24 -18.86 -2.82 -3.04 -2.82 -3.18 -2.46 -7.30 0.36 -3.54 0.14 -4.70 -1.23 -7.08 -0.87 -1.59 -2.82 -3.54 -4.26 -4.34 l-2.60 -1.37 -3.18 2.89 c-1.66 1.59 -4.99 3.97 -7.23 5.28 -2.31 1.30 -4.19 2.53 -4.19 2.82 0 0.22 0.72 2.60 1.59 5.35 l1.59 4.91 -1.73 1.81 c-1.30 1.45 -1.73 2.60 -1.66 4.84 0.14 3.32 4.70 18.28 6.14 20.31 0.51 0.65 2.60 2.31 4.55 3.61 2.96 1.88 4.12 3.25 6.29 7.73 8.60 17.34 15.03 44.66 15.03 64.10 l0 6 -2.53 0 -2.53 0 0 -4.48 c0 -18.36 -4.05 -37.58 -12.36 -59.04 -2.60 -6.79 -3.54 -8.53 -5.28 -9.39 -6.43 -3.47 -9.18 -7.95 -12.43 -19.87 -1.95 -7.52 -2.17 -11.85 -0.65 -13.88 1.23 -1.66 1.37 -4.19 0.29 -6.21 -0.43 -0.79 -0.79 -2.60 -0.79 -3.97 0 -2.46 -0.07 -2.53 -1.30 -1.23 -0.65 0.79 -1.73 3.04 -2.38 5.06 -1.16 3.54 -1.08 3.83 0.29 6.50 1.81 3.54 1.52 6.29 -2.02 17.63 -2.82 9.32 -4.55 12.14 -9.32 14.89 -3.83 2.24 -4.41 3.40 -9.39 17.99 -6.21 18.07 -8.96 32.81 -8.96 48.13 l0 7.88 -2.67 0 -2.60 0 0.43 -10.62z"/>
  <path d="M148.87 296.72 c0 -1.16 -0.51 -1.95 -1.45 -2.24 -1.08 -0.36 -1.45 -1.08 -1.45 -2.96 0 -2.24 0.14 -2.46 1.37 -1.73 2.02 1.08 2.82 0.94 3.32 -0.65 0.58 -1.88 5.06 -6.36 7.73 -7.73 1.16 -0.65 1.95 -0.79 1.73 -0.36 -0.29 0.43 0.29 0.94 1.37 1.23 1.81 0.43 1.81 0.51 -1.08 1.88 -3.83 1.95 -7.01 6.07 -8.09 10.62 -0.65 2.75 -1.16 3.69 -2.17 3.69 -0.87 0 -1.30 -0.51 -1.30 -1.73z"/>
 </g>
 <g fill="#091442">
  <path d="M288.85 660 c-0.79 -0.72 -0.58 -20.45 0.14 -20.45 0.43 0 0.79 4.48 0.94 10.48 0.22 9.90 0.07 11.20 -1.08 9.97z"/>
  <path d="M403.24 647.43 c0 -7.30 -0.22 -14.02 -0.43 -14.89 -0.43 -1.45 -0.22 -1.66 1.59 -1.59 1.30 0.07 1.59 0.22 0.79 0.43 -1.16 0.29 -1.30 1.45 -1.23 14.45 0.07 7.73 -0.07 14.24 -0.29 14.53 -0.22 0.22 -0.43 -5.64 -0.43 -12.94z"/>
  <path d="M219.40 646.49 c-0.22 -0.94 -0.14 -2.53 0.22 -3.47 0.58 -1.37 0.72 -1.08 0.72 1.81 0.07 3.76 -0.29 4.34 -0.94 1.66z"/>
  <path d="M303.44 635.29 c0.65 -0.43 0.87 -1.45 0.65 -2.89 -0.14 -1.23 -0.07 -2.24 0.29 -2.24 0.29 0 0.58 1.30 0.58 2.89 0 2.24 -0.29 2.89 -1.23 2.89 -1.01 0 -1.08 -0.14 -0.29 -0.65z"/>
  <path d="M403.68 624.88 c-0.87 -0.65 -1.23 -1.66 -1.01 -3.04 0.22 -1.95 0.51 -2.17 2.89 -2.38 3.47 -0.29 4.91 1.88 3.11 4.63 -1.23 1.95 -3.04 2.24 -4.99 0.79z m4.63 -1.37 c0 -0.51 -0.29 -1.37 -0.65 -1.95 -0.58 -0.87 -0.87 -0.94 -1.81 -0.14 -0.87 0.79 -1.01 1.23 -0.36 1.95 1.01 1.23 2.82 1.30 2.82 0.14z"/>
  <path d="M74.58 447.32 c-0.87 -0.36 -1.95 -1.52 -2.31 -2.53 -0.43 -1.23 -0.72 -37.94 -0.72 -101.89 l0 -100.02 5.71 -4.91 c3.11 -2.67 15.18 -13.15 26.74 -23.27 l21.03 -18.28 0 -40.97 c0 -30.93 0.22 -41.19 0.87 -41.84 0.65 -0.65 7.80 -0.87 27.82 -0.87 l26.96 0 0.14 17.05 0.22 16.98 24.64 -21.54 c13.51 -11.85 26.81 -23.56 29.63 -26.02 4.26 -3.83 12.57 -11.06 40.83 -35.77 3.04 -2.75 6 -4.91 6.58 -4.91 0.58 0 7.23 5.42 14.74 12 7.52 6.65 26.45 23.27 42.13 37.07 15.61 13.73 28.83 25.37 29.41 25.80 1.52 1.16 1.23 2.10 -0.79 3.04 -1.01 0.43 -1.81 1.16 -1.81 1.59 0 0.36 -0.36 0.72 -0.87 0.72 -0.43 0 -1.45 0.58 -2.17 1.23 -1.01 0.94 -1.23 0.94 -0.94 0.14 0.29 -0.72 -4.41 -5.20 -14.60 -14.02 -8.24 -7.15 -19.51 -17.05 -25.15 -21.97 -5.56 -4.91 -13.51 -11.92 -17.63 -15.54 -4.19 -3.61 -10.33 -9.03 -13.73 -12 -3.40 -3.04 -6.79 -5.85 -7.44 -6.36 -1.08 -0.87 -5.35 2.67 -35.41 28.91 -74.07 64.68 -74.22 64.75 -75.08 63.38 -0.36 -0.58 -0.65 -10.04 -0.65 -21.03 l0 -20.09 -19.87 0 -19.87 0 0 39.60 0 39.60 -3.40 3.32 c-1.95 1.81 -9.32 8.46 -16.55 14.74 -7.15 6.36 -17.34 15.32 -22.55 20.02 l-9.61 8.60 0.07 99 c0.07 92.43 0 99.08 -1.16 100.38 -1.37 1.52 -2.67 1.66 -5.20 0.65z"/>
  <path d="M114.18 391.75 c0 -0.79 0.36 -1.66 0.72 -1.88 0.43 -0.22 0.72 0.22 0.72 1.01 0 0.79 -0.29 1.66 -0.72 1.88 -0.36 0.22 -0.72 -0.22 -0.72 -1.01z"/>
  <path d="M190.78 372.02 c-1.30 -3.32 -2.67 -6.43 -3.04 -6.87 -0.51 -0.65 -0.51 -0.94 0 -0.94 1.08 0 4.12 5.71 5.13 9.76 1.37 5.49 0.43 4.55 -2.10 -1.95z"/>
  <path d="M183.92 362.85 c-2.38 -1.45 -5.13 -4.26 -4.63 -4.70 0.14 -0.14 1.95 1.16 3.90 2.89 3.90 3.40 4.12 3.90 0.72 1.81z"/>
  <path d="M250.33 329.17 c0 -5.13 0.07 -7.15 0.22 -4.48 0.14 2.67 0.14 6.94 0 9.39 -0.14 2.46 -0.22 0.29 -0.22 -4.91z"/>
  <path d="M134.41 327.94 c0 -0.14 0.79 -1.37 1.73 -2.67 1.37 -1.81 1.66 -2.89 1.37 -5.13 -0.65 -4.63 0.36 -7.80 3.47 -11.20 1.59 -1.66 3.83 -3.47 5.06 -3.97 1.73 -0.72 2.10 -1.30 1.81 -2.46 -0.22 -0.87 -0.43 -2.89 -0.43 -4.55 0 -2.60 -0.29 -3.11 -2.53 -4.48 -2.24 -1.30 -2.53 -1.81 -2.53 -4.48 0 -4.19 9.90 -43.50 15.54 -61.71 3.54 -11.35 3.40 -11.20 11.27 -11.20 3.61 0 7.08 0.29 7.80 0.72 1.73 0.87 2.31 2.53 6.29 16.98 1.81 6.79 4.63 16.98 6.14 22.76 4.63 16.84 7.23 28.26 7.37 32.01 0.14 3.04 -0.14 3.76 -1.81 5.13 -1.81 1.37 -2.02 2.10 -2.02 5.64 0 3.97 0.07 4.12 2.38 4.84 3.04 1.01 6.58 4.63 8.02 8.17 1.30 3.04 1.59 9.97 0.43 9.97 -0.36 0 -0.72 -0.58 -0.79 -1.23 -0.22 -5.56 -0.51 -6.58 -2.46 -8.82 -1.23 -1.37 -3.61 -3.32 -5.42 -4.48 -1.81 -1.16 -2.96 -2.10 -2.53 -2.10 0.36 0 -0.07 -0.51 -0.94 -1.16 -1.16 -0.79 -1.59 -1.81 -1.59 -3.90 0 -1.52 -0.36 -2.89 -0.79 -3.04 -0.58 -0.22 -0.43 -0.65 0.36 -1.45 0.87 -0.87 0.94 -1.30 0.22 -1.52 -0.51 -0.22 -0.29 -0.43 0.43 -0.43 0.94 -0.07 1.23 -0.51 1.08 -1.66 -0.14 -0.94 0.22 -2.02 0.79 -2.46 0.87 -0.72 0.22 -3.83 -4.19 -20.96 -4.55 -17.49 -7.88 -29.92 -12.14 -44.95 -0.94 -3.25 -1.30 -3.83 -2.60 -3.61 -1.52 0.22 -1.59 0.51 -1.59 10.33 0 9.32 0.14 10.19 1.59 12 2.38 2.75 3.11 5.28 3.11 10.19 0 3.76 -0.36 4.99 -2.31 8.09 -2.10 3.25 -2.38 4.34 -2.60 9.61 -0.22 4.41 -0.58 6 -1.37 6.29 -1.95 0.79 -2.38 -0.36 -2.38 -6.36 0 -5.06 -0.22 -6.36 -1.52 -7.95 -1.81 -2.31 -3.54 -7.66 -3.54 -11.06 0 -2.38 2.89 -9.11 4.34 -9.97 0.43 -0.29 0.72 -4.63 0.72 -10.91 0 -10.48 0 -10.48 -1.59 -10.26 -1.88 0.22 -1.81 0 -12.07 39.24 -7.80 29.85 -7.80 29.63 -6.21 30.28 0.65 0.22 1.01 0.72 0.72 1.08 -0.22 0.36 0.22 0.87 1.01 1.16 1.08 0.36 1.52 1.37 1.88 4.55 0.58 4.70 2.60 9.83 4.84 12.21 0.79 0.87 1.23 1.88 1.01 2.31 -0.72 1.08 -4.55 0.51 -6.14 -0.94 -2.02 -1.81 -4.05 -1.37 -8.67 1.88 -1.45 1.01 -1.66 1.73 -1.59 5.20 0 2.24 -0.22 4.05 -0.65 4.05 -0.36 0 -0.87 1.16 -1.16 2.53 -0.29 1.45 -0.79 2.46 -1.30 2.31 -0.43 -0.22 -1.37 0.14 -2.02 0.79 -0.72 0.58 -1.30 0.94 -1.30 0.72z"/>
  <path d="M168.31 322.52 c0.29 -1.52 0.43 -3.25 0.43 -3.83 -0.14 -1.95 1.23 -2.89 4.05 -2.89 3.25 0 3.54 0.94 1.81 6.50 l-1.01 3.25 -0.79 -3.11 c-1.01 -3.69 -2.31 -3.69 -3.25 0.07 -0.87 3.47 -1.81 3.47 -1.23 0z"/>
  <path d="M250.33 265.94 c0 -8.96 0.14 -12.57 0.22 -8.09 0.14 4.41 0.14 11.78 0 16.26 -0.07 4.41 -0.22 0.79 -0.22 -8.17z"/>
 </g>
 <g fill="#000000">
  <path d="M347.96 566.13 c-9.83 -2.17 -17.42 -7.88 -20.96 -15.68 -2.53 -5.49 -3.25 -13.66 -3.25 -36.42 0 -19.29 -0.07 -20.52 -1.37 -21.82 -0.79 -0.79 -2.67 -1.66 -4.19 -1.88 -4.70 -0.79 -4.63 -0.79 -4.41 -4.84 l0.22 -3.83 17.63 -0.22 c12.36 -0.14 17.92 0.07 18.57 0.65 1.08 0.87 1.37 5.49 0.43 6.87 -0.29 0.43 -1.73 1.01 -3.32 1.23 -4.91 0.79 -6 2.02 -6.58 7.37 -0.79 7.08 0.07 43.58 1.08 46.83 2.02 6.65 8.02 10.62 16.98 11.20 7.66 0.43 13.01 -1.01 16.91 -4.77 4.77 -4.55 5.13 -7.01 5.13 -32.74 0 -12.36 -0.29 -23.05 -0.72 -24.06 -0.79 -2.24 -2.82 -3.32 -7.15 -3.97 l-3.32 -0.43 0 -3.97 0 -3.97 16.26 0 16.26 0 0.22 3.83 c0.22 4.05 0.29 4.05 -4.34 4.84 -1.45 0.22 -3.40 1.01 -4.34 1.73 l-1.66 1.37 -0.43 25.22 c-0.36 21.82 -0.58 25.65 -1.73 28.76 -3.25 8.89 -9.54 14.96 -18.50 17.78 -6.29 2.02 -16.84 2.38 -23.41 0.94z"/>
  <path d="M531.51 566.85 c-25.29 -3.97 -41.41 -27.75 -36.13 -53.40 1.45 -6.79 2.60 -9.68 6.65 -15.75 5.28 -7.95 14.16 -14.16 24.21 -16.84 5.28 -1.37 18.36 -1.30 23.99 0.14 5.56 1.45 12.79 5.20 17.20 8.96 7.88 6.79 13.44 18.86 14.09 30.71 1.16 20.96 -11.20 38.95 -30.86 44.73 -4.05 1.23 -15.18 2.02 -19.15 1.45z m13.51 -9.76 c6.29 -1.59 12.36 -8.60 15.10 -17.13 2.10 -6.72 2.67 -20.81 1.16 -28.76 -2.96 -15.61 -12.29 -23.70 -25.65 -22.33 -9.18 1.01 -13.95 4.26 -17.85 12.21 -5.42 10.91 -6.21 28.62 -1.73 40.47 5.06 13.66 15.25 19.15 28.98 15.54z"/>
  <path d="M176.83 565.33 c-0.29 -0.22 -0.51 -2.02 -0.51 -3.90 l0 -3.40 3.76 -0.87 c2.10 -0.43 4.55 -1.45 5.42 -2.31 l1.66 -1.52 0 -31 0 -30.93 -6.43 0 c-8.02 0 -9.39 0.87 -11.20 7.37 -0.65 2.53 -1.52 5.35 -1.73 6.36 -0.51 1.66 -0.87 1.81 -4.48 1.81 l-3.97 0 -0.22 -12.86 -0.14 -12.79 36.28 0.14 36.35 0.22 0 12.65 0 12.65 -3.47 0.22 c-3.90 0.29 -5.56 -0.65 -5.56 -3.04 0 -3.04 -2.31 -9.25 -4.05 -11.06 -1.59 -1.59 -2.17 -1.73 -8.02 -1.52 l-6.36 0.22 0 29.63 c0 16.33 0.22 30.50 0.58 31.58 0.65 2.31 2.31 3.32 6.50 4.05 l3.04 0.51 0.22 4.19 0.22 4.12 -18.72 0 c-10.26 0 -18.93 -0.22 -19.15 -0.51z"/>
  <path d="M227.78 561.72 l0.22 -4.12 3.04 -0.65 c4.99 -0.94 6.43 -3.32 15.61 -26.38 9.68 -24.28 14.24 -36.35 14.24 -38.01 0 -0.72 -1.08 -1.45 -3.25 -1.95 l-3.32 -0.87 0.22 -4.05 0.22 -4.05 10.48 -0.22 c7.66 -0.14 10.84 0.07 11.71 0.72 0.58 0.51 5.71 12.36 11.27 26.23 19.66 48.92 18.86 47.41 24.71 48.42 l2.89 0.51 0 4.26 0 4.26 -17.85 -0.14 -17.92 -0.22 -0.22 -3.76 c-0.22 -3.61 -0.14 -3.83 1.81 -4.19 3.32 -0.79 5.85 -1.88 6.21 -2.82 0.29 -0.72 -3.04 -11.63 -4.12 -13.37 -0.36 -0.51 -5.49 -0.79 -15.54 -0.79 l-15.03 0 -1.88 5.64 c-1.08 3.04 -1.95 6.07 -1.95 6.72 0 1.81 2.46 3.54 5.85 4.12 l3.18 0.58 0 3.90 0 3.97 -15.39 0.22 -15.39 0.14 0.22 -4.12z m50.51 -34.69 c-0.72 -1.95 -3.04 -8.09 -5.13 -13.73 -2.17 -5.71 -4.19 -10.33 -4.63 -10.33 -0.43 0 -3.11 5.93 -5.85 13.15 -2.82 7.23 -5.13 13.37 -5.28 13.73 -0.14 0.29 4.77 0.58 10.98 0.58 l11.27 0 -1.37 -3.40z"/>
  <path d="M408.30 561.87 l0 -3.97 2.82 -0.43 c1.59 -0.22 3.83 -1.08 5.06 -1.81 l2.24 -1.37 0 -30.57 c0 -33.75 0.22 -32.38 -4.48 -33.31 -1.16 -0.22 -2.82 -0.58 -3.90 -0.79 -1.66 -0.36 -1.81 -0.65 -1.59 -4.19 l0.22 -3.76 24.57 0 c23.49 0 24.79 0.07 29.77 1.66 6.58 2.02 11.78 6.07 14.45 11.20 1.73 3.25 2.02 4.55 2.02 10.26 0 5.93 -0.22 6.87 -2.24 10.48 -2.53 4.41 -7.73 8.82 -12.21 10.33 -1.59 0.58 -2.82 1.30 -2.75 1.66 0.58 2.60 16.04 25.44 18.28 27.03 1.08 0.79 3.90 1.88 6.29 2.38 l4.19 1.01 0 3.90 0 3.90 -10.19 0 c-9.61 0 -10.26 -0.07 -12.79 -1.81 -3.40 -2.31 -8.53 -9.18 -15.75 -21.17 -3.18 -5.28 -6.36 -10.04 -7.01 -10.70 -1.37 -1.37 -7.95 -2.38 -9.39 -1.45 -0.79 0.43 -0.94 3.11 -0.72 11.85 0.22 12.94 0.72 14.02 6.29 14.74 3.54 0.51 4.63 2.17 3.90 6.29 l-0.43 2.60 -18.28 0 -18.36 0 0 -3.97z m41.19 -43.07 c7.15 -1.59 10.84 -6.21 10.84 -13.59 0 -6.07 -1.95 -9.83 -6 -11.71 -2.38 -1.08 -4.77 -1.37 -11.13 -1.37 l-8.17 0 0 13.73 0 13.73 5.64 0 c3.04 0 7.01 -0.36 8.82 -0.79z"/>
 </g>
</svg>